<svg width="396" height="222.02972953662623" viewBox="0 0 350 196.2383973177252" xmlns="http://www.w3.org/2000/svg"
    class="looka-1j8o68f">
    <defs id="SvgjsDefs1293"></defs>
    <g id="SvgjsG1294" featurekey="aMgJeN-0"
        transform="matrix(0.3761851831655097,0,0,0.3761851831655097,78.65093324269394,-25.768687916902593)"
        fill="#274287">
        <g xmlns="http://www.w3.org/2000/svg">
            <ellipse cx="209.7" cy="270.1" rx="12.7" ry="12.7"></ellipse>
            <path
                d="M439.3,217.3c-3.5-3.1-85.2-76.7-110.8-93.8h0c-4-2.7-9-5.1-14.7-7.2c-7.4-16.9-19.5-32-35.9-43.1l-7-4.7l-4.7,7   c-7.3,10.8-12.1,22.6-14.8,34.6c-8.8,1.2-18.6,3.4-28.8,7.2c-18.7-28.5-50.3-46-84.6-46h-8.5v8.5c0,30.4,13.6,58.8,36.8,78   c-0.3,0.4-0.7,0.8-1,1.2c-44.6,54.5-31.9,101.9-25.6,117.7l-68.7,78.3l-0.4,2.3c-5.7,29.5,34,47.4,43.2,51.2   c22.9,18.8,76.8,1.8,96.6-5.4l24.2,40.3h207.6V219.8L439.3,217.3z M275.6,92.6c11.2,9.4,19.4,21.3,24.4,34.3c1,2.5,1.8,5.1,2.6,7.7   c0.2,0.8,0.4,1.6,0.6,2.4c0.5,1.9,0.9,3.8,1.2,5.7c0.2,1.1,0.3,2.2,0.5,3.3c0.2,1.7,0.4,3.4,0.5,5.2c0.1,1,0.2,2.1,0.2,3.1   c0.1,2.3,0.1,4.7,0,7c0,0.4,0,0.7,0,1.1c-0.2,2.8-0.5,5.5-0.9,8.2c-0.1,0.7-0.3,1.4-0.4,2.1c-0.4,2.1-0.8,4.2-1.4,6.2   c-0.2,0.8-0.4,1.5-0.6,2.3c-0.6,2.1-1.3,4.1-2.1,6.2c-0.2,0.6-0.5,1.3-0.7,1.9c-1.1,2.6-2.3,5.2-3.6,7.8c-2.6-2.2-5.1-4.6-7.4-7.2   c-0.2-0.3-0.5-0.5-0.7-0.8c-16.8-18.7-24.8-44.4-20.8-69.9l0.2-1.4C268.5,109.1,271.3,100.7,275.6,92.6z M146.8,88.7   c24.2,2.6,46.2,15.6,60.2,35.6c-9.8,5.2-19.8,12.2-29.3,21.2C160.3,131.4,149.2,111,146.8,88.7z M425.2,426.6H244.1l-26.6-44.4   l-6.7,2.7c-16.3,6.6-38.4,12.8-56.6,14.7c26.3-14.8,54.5-40.8,65.7-51.6l-11.7-12.2c-31.9,30.8-74.4,61.4-87.2,57.3   c-3.1-1.2-7.7-3.3-12.6-6.2c2.2-1.4,3.9-3.7,4.7-6.2c1.2-3.7,1-7.7,0.5-11.6c-0.3-2.3-0.6-4.6-1-6.9c-0.7-3.8-1.6-7.6-3.5-10.9   c-1.6-2.7-4.1-5-7.1-6.1l57.8-65.9l-2.8-5.2c-0.3-0.5-25.2-47.6,21.3-104.4c1.8-2.2,3.7-4.1,5.5-6.1l1-1   c11.1-11.7,23.9-20.7,37.9-26.9l2.8-1.2c8.2-3.3,16.2-5.5,23.5-6.8c0,0.2,0,0.5,0,0.7c-0.5,12.6,1.4,25.2,5.5,37.2   c0.1,0.2,0.2,0.5,0.2,0.7c4.1,11.6,10.3,22.6,18.6,32.2c0.5,0.5,0.9,1.1,1.4,1.6c2.2,2.5,4.5,4.8,7,7.1c0.7,0.6,1.3,1.3,2,1.9   c3,2.6,6.2,5.2,9.6,7.5l7,4.7l4.7-7c1.9-2.8,3.6-5.7,5.2-8.7c0.8-1.5,1.5-3.1,2.3-4.7c0.7-1.4,1.4-2.8,2-4.3   c0.8-1.9,1.4-3.8,2.1-5.7c0.4-1.2,0.9-2.4,1.3-3.7c0.6-1.9,1-3.7,1.4-5.6c0.3-1.3,0.7-2.7,1-4c0.3-1.6,0.5-3.3,0.8-5   c0.2-1.6,0.5-3.2,0.7-4.9c0.1-1.3,0.1-2.6,0.2-4c0.1-2,0.3-4,0.3-5.9c0-1-0.1-1.9-0.1-2.9c-0.1-2.3-0.1-4.7-0.3-7   c-0.1-0.7-0.2-1.3-0.3-2c-0.3-2.4-0.5-4.7-1-7.1c23.7,16.5,89.9,75.6,104.3,88.6V426.6z"></path>
        </g>
    </g>
    <g id="SvgjsG1295" featurekey="8L6ael-0"
        transform="matrix(2.348262467389367,0,0,2.348262467389367,-0.4641280241553637,149.2731524488931)"
        fill="#000000">
        <path
            d="M20.72 5.300000000000001 q0.2 0.28 0.1 0.62 l-4.22 13.54 q-0.06 0.22 -0.25 0.36 t-0.43 0.14 l-1.74 0 q-0.22 0 -0.41 -0.14 t-0.25 -0.34 l-3 -9.28 l-2.98 9.28 q-0.08 0.22 -0.26 0.35 t-0.42 0.13 l-1.74 0 q-0.36 0 -0.58 -0.28 q-0.2 -0.34 -0.08 -0.64 l4.52 -13.56 q0.06 -0.2 0.25 -0.34 t0.41 -0.14 l1.76 0 q0.24 0 0.42 0.14 t0.26 0.36 l2.96 9.2 l2.8 -9.2 q0.08 -0.22 0.27 -0.36 t0.41 -0.14 l1.62 0 q0.38 0 0.58 0.3 z M3.2 5.5 l1.14 3.74 q0.12 0.34 -0.1 0.63 t-0.58 0.29 l-1.58 0 q-0.24 0 -0.43 -0.14 t-0.25 -0.36 l-1.16 -3.74 q-0.12 -0.34 0.1 -0.63 t0.56 -0.29 l1.62 0 q0.24 0 0.43 0.14 t0.25 0.36 z M30.228 5.16 q0.24 0.2 0.24 0.54 l0 1.5 q0 0.26 -0.15 0.45 t-0.41 0.25 q-1.28 0.26 -2.18 1.22 q-1.22 1.28 -1.22 3.33 t1.22 3.35 q0.9 0.94 2.18 1.2 q0.26 0.06 0.41 0.25 t0.15 0.45 l0 1.5 q0 0.32 -0.24 0.54 q-0.22 0.16 -0.46 0.16 l-0.12 0 q-2.32 -0.38 -3.98 -2.1 q-2.08 -2.14 -2.08 -5.33 t2.08 -5.37 q1.62 -1.68 3.98 -2.08 q0.32 -0.06 0.58 0.14 z M36.507999999999996 7.1 q2.08 2.18 2.08 5.37 t-2.08 5.33 q-1.66 1.72 -3.98 2.1 l-0.12 0 q-0.24 0 -0.46 -0.16 q-0.24 -0.22 -0.24 -0.54 l0 -1.5 q0 -0.26 0.15 -0.45 t0.41 -0.25 q1.28 -0.26 2.18 -1.2 q1.22 -1.3 1.22 -3.35 t-1.22 -3.33 q-0.9 -0.96 -2.18 -1.22 q-0.26 -0.06 -0.41 -0.25 t-0.15 -0.45 l0 -1.5 q0 -0.34 0.25 -0.54 t0.57 -0.14 q2.36 0.4 3.98 2.08 z M44.976 5 q0.28 0 0.49 0.21 t0.21 0.49 l0 13.4 q0 0.28 -0.21 0.49 t-0.49 0.21 l-1.52 0 q-0.28 0 -0.49 -0.21 t-0.21 -0.49 l0 -13.4 q0 -0.28 0.21 -0.49 t0.49 -0.21 l1.52 0 z M52.275999999999996 16.94 q0.3 0 0.5 0.21 t0.2 0.49 l0 1.46 q0 0.28 -0.2 0.49 t-0.5 0.21 l-4.66 0 q-0.3 0 -0.5 -0.21 t-0.2 -0.49 l0 -1.46 q0 -0.28 0.2 -0.49 t0.5 -0.21 l4.66 0 z M69.38399999999999 18.7 q0.12 0.14 0.14 0.34 t-0.07 0.38 t-0.26 0.28 t-0.37 0.1 l-1.9 0 q-0.18 0 -0.33 -0.08 t-0.25 -0.22 l-4.78 -6.88 l-1.96 1.84 l0 4.64 q0 0.28 -0.21 0.49 t-0.49 0.21 l-1.52 0 q-0.28 0 -0.49 -0.21 t-0.21 -0.49 l0 -5.56 q0 -0.32 0.22 -0.5 l8.36 -7.84 q0.2 -0.2 0.48 -0.2 l2.16 0 q0.2 0 0.38 0.12 t0.26 0.32 t0.04 0.41 t-0.2 0.37 l-4.68 4.4 z M57.38399999999999 10.1 q-0.28 0 -0.49 -0.2 t-0.21 -0.5 l0 -3.7 q0 -0.28 0.21 -0.49 t0.49 -0.21 l1.52 0 q0.28 0 0.49 0.21 t0.21 0.49 l0 3.7 q0 0.3 -0.21 0.5 t-0.49 0.2 l-1.52 0 z M82.592 12.42 q0.86 0.54 1.31 1.32 t0.45 1.74 q0 2.26 -1.72 3.46 q-1.16 0.84 -3.14 1.06 l-0.08 0 q-0.28 0 -0.46 -0.18 q-0.24 -0.22 -0.24 -0.52 l0 -1.44 q0 -0.26 0.18 -0.46 t0.44 -0.24 q0.94 -0.1 1.46 -0.44 q0.4 -0.24 0.54 -0.62 q0.08 -0.22 0.08 -0.56 q0 -0.22 -0.08 -0.38 t-0.28 -0.3 q-0.58 -0.4 -1.5 -0.68 l-0.32 -0.1 q-1 -0.28 -1.84 -0.46 q-0.18 -0.04 -0.58 -0.14 l-0.22 -0.06 q-0.72 -0.18 -1.52 -0.5 q-1.18 -0.5 -1.94 -1.26 q-0.88 -0.88 -0.88 -2.32 q0 -1.98 1.52 -3.22 q1.04 -0.88 2.92 -1.12 q0.32 -0.04 0.55 0.18 t0.23 0.52 l0 1.44 q0 0.26 -0.16 0.46 t-0.41 0.23 t-0.51 0.11 q-0.58 0.22 -0.82 0.43 t-0.34 0.43 q-0.1 0.34 -0.1 0.64 q0 0.16 0.18 0.34 q0.28 0.28 0.82 0.5 q0.24 0.1 0.84 0.3 l2.5 0.62 l0.12 0.04 q0.94 0.26 1.36 0.4 q0.94 0.32 1.64 0.78 z M79.252 7.9 q-0.24 -0.06 -0.39 -0.25 t-0.15 -0.45 l0 -1.46 q0 -0.32 0.26 -0.54 q0.1 -0.1 0.26 -0.13 t0.3 -0.01 q1.76 0.28 2.86 1.2 q1.5 1.24 1.6 3.16 q0.02 0.28 -0.19 0.51 t-0.51 0.23 l-1.56 0 q-0.26 0 -0.46 -0.18 t-0.22 -0.44 q-0.08 -0.52 -0.34 -0.86 q-0.42 -0.5 -1.3 -0.76 q-0.06 0 -0.08 -0.02 l-0.08 0 z M76.91199999999999 17.08 q0.24 0.04 0.4 0.24 t0.16 0.44 l0 1.48 q0 0.32 -0.24 0.54 q-0.2 0.16 -0.46 0.16 l-0.1 0 q-1.86 -0.28 -3.06 -1.22 q-1.56 -1.24 -1.76 -3.46 q-0.04 -0.32 0.18 -0.55 t0.52 -0.23 l1.58 0 q0.28 0 0.48 0.19 t0.22 0.47 q0.06 1 0.98 1.54 q0.42 0.24 1.1 0.4 z M89.86 5 q0.3 0 0.51 0.21 t0.21 0.51 l0 1.46 q0 0.3 -0.21 0.51 t-0.51 0.21 l-2.06 0 q-0.28 0 -0.49 -0.21 t-0.21 -0.51 l0 -1.46 q0 -0.3 0.21 -0.51 t0.49 -0.21 l2.06 0 z M98.8 5 q0.28 0 0.49 0.21 t0.21 0.51 l0 1.46 q0 0.3 -0.21 0.51 t-0.49 0.21 l-4.02 0 l0 11.36 q0 0.28 -0.21 0.49 t-0.49 0.21 l-1.54 0 q-0.3 0 -0.51 -0.21 t-0.21 -0.49 l0 -13.54 q0 -0.3 0.21 -0.51 t0.51 -0.21 l6.26 0 z M112.648 14.1 l3.02 4.62 q0.22 0.36 0.02 0.72 q-0.08 0.16 -0.25 0.26 t-0.35 0.1 l-1.82 0 q-0.18 0 -0.34 -0.09 t-0.24 -0.23 l-3.04 -4.82 l-3.56 0 l0 4.44 q0 0.28 -0.21 0.49 t-0.49 0.21 l-1.52 0 q-0.28 0 -0.49 -0.21 t-0.21 -0.49 l0 -6.58 q0 -0.28 0.21 -0.49 t0.49 -0.21 l6.16 0 q1.76 0 2.34 -1 q0.2 -0.32 0.2 -0.92 q0 -0.94 -0.62 -1.48 q-0.64 -0.58 -1.84 -0.58 l-6.24 0 q-0.28 0 -0.49 -0.21 t-0.21 -0.49 l0 -1.44 q0 -0.28 0.21 -0.49 t0.49 -0.21 l6.42 0 q2.34 0 3.74 1.32 q1.46 1.32 1.46 3.58 q0 1.46 -0.64 2.49 t-1.86 1.57 z M125.656 5.16 q0.24 0.2 0.24 0.54 l0 1.5 q0 0.26 -0.15 0.45 t-0.41 0.25 q-1.28 0.26 -2.18 1.22 q-1.22 1.28 -1.22 3.33 t1.22 3.35 q0.9 0.94 2.18 1.2 q0.26 0.06 0.41 0.25 t0.15 0.45 l0 1.5 q0 0.32 -0.24 0.54 q-0.22 0.16 -0.46 0.16 l-0.12 0 q-2.32 -0.38 -3.98 -2.1 q-2.08 -2.14 -2.08 -5.33 t2.08 -5.37 q1.62 -1.68 3.98 -2.08 q0.32 -0.06 0.58 0.14 z M131.936 7.1 q2.08 2.18 2.08 5.37 t-2.08 5.33 q-1.66 1.72 -3.98 2.1 l-0.12 0 q-0.24 0 -0.46 -0.16 q-0.24 -0.22 -0.24 -0.54 l0 -1.5 q0 -0.26 0.15 -0.45 t0.41 -0.25 q1.28 -0.26 2.18 -1.2 q1.22 -1.3 1.22 -3.35 t-1.22 -3.33 q-0.9 -0.96 -2.18 -1.22 q-0.26 -0.06 -0.41 -0.25 t-0.15 -0.45 l0 -1.5 q0 -0.34 0.25 -0.54 t0.57 -0.14 q2.36 0.4 3.98 2.08 z M139.60399999999998 5 q0.3 0 0.51 0.21 t0.21 0.51 l0 1.46 q0 0.3 -0.21 0.51 t-0.51 0.21 l-2.06 0 q-0.28 0 -0.49 -0.21 t-0.21 -0.51 l0 -1.46 q0 -0.3 0.21 -0.51 t0.49 -0.21 l2.06 0 z M148.54399999999998 5 q0.28 0 0.49 0.21 t0.21 0.51 l0 1.46 q0 0.3 -0.21 0.51 t-0.49 0.21 l-4.02 0 l0 11.36 q0 0.28 -0.21 0.49 t-0.49 0.21 l-1.54 0 q-0.3 0 -0.51 -0.21 t-0.21 -0.49 l0 -13.54 q0 -0.3 0.21 -0.51 t0.51 -0.21 l6.26 0 z"></path>
    </g>
</svg>