<svg xmlns="http://www.w3.org/2000/svg" width="200" height="63.333" viewBox="0 0 200 63.333"><path d="M151.4 25.267c-4.7-1.633-6.167-2.6-6.167-4.367 0-1.967 1.633-3.133 4.533-3.133 2.367 0 4.733.667 6.5 1.367l.767-8.533c-2.167-.6-4.8-1.067-7.667-1.067-9.5 0-15.6 5.4-15.6 12.533-.067 4.533 2.967 8.833 10.9 11.533 4.467 1.5 5.633 2.433 5.633 4.367 0 1.967-1.5 3.2-5.1 3.2-3.5 0-8.033-1.567-10.267-2.9l-2.1 8.533c2.9 1.567 7.333 2.667 12.4 2.667 11 0 16.6-5.233 16.6-12.4-.067-5.633-3.1-9.3-10.433-11.8m28.833 14.5c-3.6 0-4.7-2.1-4.7-6.733V0l-11.667 2.667v7.7h-4.433l-.8 8.767h5.267v15.633c0 5.4 1.1 9.067 3.3 11.367 1.867 1.967 5.067 3.3 8.9 3.3 3.367 0 6.167-.4 7.733-1.033l-.067-9c-.867.167-2.033.333-3.533.367m-3.767-20.6h7.3v-8.801h-7.3zM44.167 30.2c-.233-5.867-.433-12.967-.433-20.067h-.233c-1.567 6.233-3.7 13.2-5.667 18.9l-6.2 19.067h-8.967l-5.434-18.933c-1.667-5.733-3.4-12.7-4.6-19.067H12.5c-.3 6.567-.533 14.133-.9 20.233l-.9 18.533H0L3.233.033h15.333l4.967 16.3C25.1 21.966 26.7 28.1 27.833 33.8h.233c1.433-5.633 3.167-12.133 4.833-17.533L38.333.033h15.033l2.8 48.833H44.899zm63.1 3.133c.4 4.933 5.233 7.267 10.833 7.267 4.067 0 7.333-.533 10.6-1.567l1.567 8.067c-3.9 1.567-8.667 2.333-13.867 2.333-13 0-20.433-7.5-20.433-19.5C95.967 20.233 102 9.5 115.3 9.5c12.4 0 17.067 9.6 17.067 19.1 0 2.033-.233 3.833-.4 4.7zm14.033-8.167c0-2.9-1.267-7.733-6.733-7.733-5 0-7.033 4.533-7.333 7.733z" fill="#0862af"/><path d="m191.933.067 8.067 14.7-8.067 14.767h-8.167l8.067-14.767-8.1-14.7zq0-.05 0 0M92.1 63.333H59.3V55.2h32.8zM68.933 33.3c.4 4.933 5.233 7.267 10.833 7.267 4.067 0 7.333-.533 10.6-1.567l1.567 8.067c-3.9 1.567-8.667 2.333-13.867 2.333-13 0-20.433-7.5-20.433-19.5 0-9.7 6.033-20.433 19.333-20.433 12.4 0 17.067 9.6 17.067 19.1 0 2.033-.233 3.833-.4 4.7h-24.7zm14.033-8.167c0-2.9-1.267-7.733-6.733-7.733-5 0-7.033 4.533-7.367 7.733z" fill="#ed1c24"/></svg>